<svg id="Layer_1" data-name="Layer 1" xmlns="http://www.w3.org/2000/svg" xmlns:xlink="http://www.w3.org/1999/xlink" viewBox="0 0 2048 374"><defs><style>.cls-1{fill:url(#linear-gradient);}.cls-2{fill:url(#linear-gradient-2);}.cls-3{fill:url(#linear-gradient-3);}.cls-4{font-size:72px;font-family:Raleway-Medium, Raleway;font-weight:500;}.cls-4,.cls-7{fill:#fff;}.cls-5,.cls-6,.cls-7{font-family:Raleway;}.cls-5,.cls-6{font-weight:400;}.cls-5{letter-spacing:-0.01em;}.cls-7{font-size:21px;letter-spacing:0.44em;}</style><linearGradient id="linear-gradient" x1="1278.52" y1="732.82" x2="769.48" y2="-358.82" gradientUnits="userSpaceOnUse"><stop offset="0" stop-color="#2e3192"/><stop offset="1" stop-color="#9e005d"/></linearGradient><linearGradient id="linear-gradient-2" x1="972.24" y1="603.55" x2="910.88" y2="471.96" gradientUnits="userSpaceOnUse"><stop offset="0" stop-color="#1579ff"/><stop offset="0.78" stop-color="#00e960"/></linearGradient><linearGradient id="linear-gradient-3" x1="921.66" y1="140.34" x2="913.33" y2="122.47" xlink:href="#linear-gradient-2"/></defs><rect class="cls-1" width="2048" height="374"/><path class="cls-2" d="M986,501.29c.7-15.54-11.56-26.48-14.26-28.88-15.22-13.57-34.4-11.46-37.61-11.05-5.48-.47-9.67,4-9.4,8.15s4.88,7.94,10.19,6.9c1.6-.4,11.86-2.8,21.48,3.7,6.82,4.61,11.63,13.18,11.51,20.14-.22,13.15-16.06,27.32-39.34,28a6.35,6.35,0,0,0-2.19.4,68.17,68.17,0,0,0-7-.44V497.86a8.73,8.73,0,0,0-8.74-8.72h0a8.73,8.73,0,0,0-8.75,8.72v92.47a8.73,8.73,0,0,0,8.75,8.72h0a8.73,8.73,0,0,0,8.74-8.72V542.85c5.63.3,21.78,2.19,34.86,15.54A52.6,52.6,0,0,1,968.8,590c1.09,6.61,7.42,10,11.79,8.5,3.47-1.21,6-5.65,5.23-10.55-.56-4.58-4.15-30-27.06-46.82a66.78,66.78,0,0,0-5.62-3.69,54.19,54.19,0,0,0,7.34-3.26C965.1,531.7,985.1,520.85,986,501.29Z" transform="translate(0 -358)"/><ellipse class="cls-3" cx="910.87" cy="117.2" rx="9.87" ry="9.85"/><text class="cls-4" transform="translate(1010.98 230.98)">| <tspan class="cls-5" x="34.77" y="0">S</tspan><tspan class="cls-6" x="78.05" y="0">tu</tspan></text><text class="cls-7" transform="translate(975.13 276.44)">Team</text></svg>