<?xml version="1.0" encoding="utf-8"?>
<!-- Generator: Adobe Illustrator 25.2.1, SVG Export Plug-In . SVG Version: 6.00 Build 0)  -->
<svg version="1.1" id="Layer_1" xmlns="http://www.w3.org/2000/svg" xmlns:xlink="http://www.w3.org/1999/xlink" x="0px" y="0px"
	 viewBox="0 0 90 20" style="enable-background:new 0 0 90 20;" xml:space="preserve">
<style type="text/css">
	.st0{fill:#FFFFFF;filter:url(#Adobe_OpacityMaskFilter);}
	.st1{mask:url(#a_1_);}
	.st2{fill:#555555;}
	.st3{fill:#28A3DF;}
	.st4{fill:url(#SVGID_1_);}
	.st5{enable-background:new    ;}
	.st6{fill:#010101;}
	.st7{font-family:'Verdana';}
	.st8{font-size:11px;}
	.st9{fill:#FFFFFF;}
</style>
<defs>
	<filter id="Adobe_OpacityMaskFilter" filterUnits="userSpaceOnUse" x="0" y="0" width="90" height="20">
		<feColorMatrix  type="matrix" values="1 0 0 0 0  0 1 0 0 0  0 0 1 0 0  0 0 0 1 0"/>
	</filter>
</defs>
<mask maskUnits="userSpaceOnUse" x="0" y="0" width="90" height="20" id="a_1_">
	<path class="st0" d="M3,0h84c1.7,0,3,1.3,3,3v14c0,1.7-1.3,3-3,3H3c-1.7,0-3-1.3-3-3V3C0,1.3,1.3,0,3,0z"/>
</mask>
<g class="st1">
	<rect class="st2" width="44" height="20"/>
	<rect x="44" class="st3" width="46" height="20"/>
	
		<linearGradient id="SVGID_1_" gradientUnits="userSpaceOnUse" x1="-966.6334" y1="558.75" x2="-966.6334" y2="557.75" gradientTransform="matrix(90 0 0 -20 87042 11175)">
		<stop  offset="0" style="stop-color:#BBBBBB;stop-opacity:0.1"/>
		<stop  offset="1" style="stop-color:#000000;stop-opacity:0.1"/>
	</linearGradient>
	<rect class="st4" width="90" height="20"/>
</g>
<g>
	<g class="st5">
		<text transform="matrix(1 0 0 1 6.4517 15)" class="st6 st7 st8">stable</text>
	</g>
	<text transform="matrix(1 0 0 1 6.4517 14)" class="st9 st7 st8">stable</text>
	<g class="st5">
		<text transform="matrix(1 0 0 1 48.0122 15)" class="st6 st7 st8">2.9.11</text>
	</g>
	<text transform="matrix(1 0 0 1 48.0122 14)" class="st9 st7 st8">2.9.11</text>
</g>
</svg>
